<?xml version="1.0" encoding="utf-8" ?>
<svg xmlns="http://www.w3.org/2000/svg" xmlns:xlink="http://www.w3.org/1999/xlink" width="1024" height="1024">
	<path fill="#E2E2E2" d="M0 0L1024 0L1024 1024L0 1024L0 0Z"/>
	<path d="M705.704 543.222C731.589 542.495 757.698 542.875 783.601 542.974C782.981 567.057 771.264 602.634 761.299 624.741C758.099 631.839 754.019 638.509 750.794 645.604C749.553 639.242 748.151 633.094 745.899 626.996Q745.457 625.797 744.986 624.609Q744.514 623.422 744.013 622.246Q743.512 621.071 742.981 619.908Q742.45 618.746 741.891 617.597Q741.331 616.448 740.743 615.314Q740.155 614.179 739.539 613.06Q738.923 611.94 738.279 610.837Q737.634 609.733 736.963 608.646Q736.291 607.559 735.592 606.489Q734.894 605.419 734.168 604.367Q733.443 603.315 732.692 602.281Q731.941 601.248 731.163 600.233Q730.386 599.219 729.584 598.224Q728.782 597.23 727.955 596.255Q727.128 595.281 726.277 594.328Q725.426 593.375 724.552 592.443Q723.677 591.512 722.779 590.602Q721.882 589.693 720.961 588.806Q720.041 587.92 719.099 587.056Q718.157 586.193 717.194 585.354Q716.23 584.514 715.246 583.699Q714.262 582.884 713.257 582.094Q712.253 581.304 711.229 580.539Q710.206 579.775 709.163 579.036Q708.12 578.297 707.06 577.585Q705.999 576.872 704.921 576.187Q703.842 575.501 702.747 574.842Q701.652 574.184 700.541 573.553Q699.429 572.922 698.303 572.32Q697.176 571.717 696.034 571.143Q694.893 570.568 693.737 570.023Q692.582 569.477 691.413 568.961C667.984 558.341 635.365 557.396 611.209 566.413C628.999 577.682 641.733 586.637 654.767 603.773Q655.596 604.857 656.399 605.962Q657.202 607.066 657.977 608.19Q658.752 609.314 659.5 610.456Q660.247 611.599 660.966 612.759Q661.686 613.92 662.376 615.097Q663.067 616.275 663.728 617.47Q664.389 618.664 665.021 619.874Q665.653 621.085 666.255 622.31Q666.857 623.535 667.429 624.775Q668 626.015 668.542 627.268Q669.083 628.522 669.593 629.788Q670.103 631.055 670.582 632.333Q671.061 633.612 671.508 634.901Q671.956 636.191 672.371 637.492Q672.787 638.792 673.17 640.103Q673.554 641.413 673.905 642.732Q674.257 644.052 674.575 645.379Q674.894 646.707 675.18 648.042Q675.466 649.377 675.72 650.718Q675.973 652.06 676.193 653.407Q676.413 654.754 676.6 656.107Q676.787 657.459 676.941 658.816Q677.095 660.172 677.216 661.532Q677.336 662.892 677.423 664.255Q677.51 665.617 677.564 666.981Q677.618 668.346 677.638 669.711Q677.658 671.076 677.644 672.441Q677.631 673.806 677.584 675.171Q677.537 676.535 677.457 677.898Q677.376 679.261 677.263 680.622Q677.149 681.982 677.002 683.339Q676.854 684.697 676.674 686.05C672.488 706.248 664.493 723.089 650.393 738.325C641.448 747.992 629.69 756.371 617.992 762.465C597.45 773.167 566.907 781.787 543.723 782.595C544.288 756.67 543.704 730.662 543.639 704.729C543.603 690.155 542.757 674.961 544.052 660.462C546.569 632.279 559.371 605.232 578.47 584.531C599.016 562.262 629.567 546.767 659.76 544.133C674.971 542.807 690.432 543.81 705.704 543.222Z"/>
	<path d="M544.369 241.558C582.88 245.735 619.35 257.261 652.309 277.921C641.111 277.518 628.81 280.281 618.511 284.572Q617.494 284.991 616.489 285.435Q615.483 285.88 614.488 286.349Q613.494 286.819 612.512 287.313Q611.529 287.807 610.56 288.325Q609.59 288.843 608.633 289.386Q607.677 289.928 606.734 290.494Q605.792 291.061 604.864 291.65Q603.935 292.24 603.022 292.852Q602.109 293.465 601.211 294.1Q600.314 294.735 599.432 295.392Q598.551 296.049 597.686 296.729Q596.821 297.408 595.974 298.108Q595.126 298.809 594.296 299.53Q593.466 300.252 592.655 300.994Q591.843 301.735 591.051 302.497Q590.258 303.259 589.484 304.041Q588.711 304.822 587.957 305.623Q587.203 306.424 586.47 307.243Q585.736 308.062 585.023 308.899Q584.311 309.736 583.619 310.591Q582.927 311.446 582.257 312.318Q581.587 313.189 580.939 314.078Q580.29 314.966 579.665 315.87Q579.039 316.774 578.436 317.694Q577.833 318.613 577.253 319.547Q576.673 320.481 576.117 321.43Q575.56 322.378 575.028 323.34Q574.495 324.302 573.987 325.277Q573.478 326.252 572.994 327.24Q572.511 328.227 572.052 329.226Q571.592 330.225 571.159 331.236Q570.725 332.246 570.316 333.267C559.559 359.726 561.43 392.408 572.474 418.434C577.269 406.741 582.527 395.654 590.65 385.835Q591.516 384.806 592.406 383.798Q593.297 382.79 594.212 381.805Q595.126 380.819 596.065 379.856Q597.003 378.892 597.965 377.952Q598.927 377.012 599.911 376.096Q600.896 375.18 601.902 374.288Q602.908 373.396 603.936 372.528Q604.964 371.661 606.013 370.819Q607.061 369.977 608.13 369.161Q609.199 368.345 610.288 367.555Q611.376 366.765 612.483 366.002Q613.591 365.239 614.716 364.503Q615.842 363.767 616.985 363.059Q618.128 362.35 619.289 361.67Q620.449 360.99 621.625 360.338Q622.802 359.687 623.993 359.064Q625.185 358.441 626.392 357.847Q627.599 357.254 628.82 356.69Q630.04 356.125 631.275 355.591Q632.509 355.057 633.756 354.553Q635.003 354.049 636.261 353.576Q637.52 353.103 638.79 352.66Q640.06 352.218 641.34 351.806Q642.621 351.395 643.911 351.014Q645.201 350.634 646.5 350.286Q647.798 349.937 649.105 349.62Q650.412 349.303 651.727 349.018Q653.041 348.733 654.362 348.481Q655.683 348.228 657.009 348.007Q658.336 347.787 659.668 347.599Q660.999 347.41 662.335 347.255Q663.671 347.099 665.01 346.976C690.777 344.632 715.486 352.621 735.32 369Q736.105 369.613 736.844 370.282C743.337 376.046 749.15 382.352 754.011 389.564C770.08 413.406 782.054 451.805 783.704 480.535C766.814 481.015 749.877 480.839 732.982 480.83Q711.352 480.809 689.723 480.532C679.152 480.415 668.44 480.709 657.926 479.518C628.795 476.217 601.548 461.694 581.008 440.978C573.557 433.464 567.514 425.042 562.126 415.968C541.869 381.85 544.231 351.838 544.181 314.234L544.369 241.558Z"/>
	<path d="M478.059 241.722C478.727 241.688 478.308 241.652 479.259 242.114C480.377 246.31 479.609 268.534 479.595 274.337Q479.392 311.223 479.68 348.107C479.811 383.597 469.06 415.73 443.61 441.145C421.918 462.807 391.604 477.444 361.021 480.275C345.119 481.746 328.617 480.748 312.651 480.684L240.287 480.408C242.273 448.741 258.362 405.878 275.656 379.404C276.401 384.033 277.199 388.61 278.234 393.187C279.237 397.645 280.677 402.131 282.412 406.357C291.57 428.652 311.345 446.266 333.365 455.322C359.302 465.99 391.224 466.112 417.233 455.223C404.842 450.744 393.578 444.867 383.456 436.388C362.242 418.616 348.744 395.533 346.463 367.654C344.135 339.218 352.521 310.836 371.106 289.009C397.614 257.878 438.561 244.974 478.059 241.722Z"/>
	<path d="M242.815 544.245C257.331 543.682 271.974 544.292 286.5 544.356L350.306 544.233Q351.919 544.221 353.532 544.251Q355.144 544.28 356.756 544.349Q358.367 544.419 359.976 544.53Q361.585 544.64 363.191 544.791Q364.797 544.942 366.399 545.133Q368 545.324 369.596 545.555Q371.193 545.787 372.783 546.059Q374.372 546.33 375.955 546.642Q377.538 546.953 379.112 547.305Q380.686 547.656 382.251 548.047Q383.816 548.438 385.37 548.868Q386.925 549.298 388.468 549.768Q390.011 550.237 391.542 550.745Q393.073 551.253 394.59 551.799Q396.108 552.345 397.611 552.93Q399.115 553.514 400.603 554.136Q402.091 554.758 403.563 555.418Q405.035 556.077 406.49 556.773Q407.945 557.469 409.382 558.202Q410.819 558.935 412.237 559.703Q413.655 560.472 415.053 561.276Q416.451 562.08 417.829 562.919Q419.206 563.758 420.562 564.632Q421.918 565.505 423.252 566.413Q424.585 567.32 425.896 568.26Q427.206 569.201 428.492 570.175Q429.778 571.148 431.039 572.153Q432.3 573.159 433.536 574.196Q434.771 575.233 435.98 576.3Q437.189 577.368 438.371 578.466Q439.553 579.564 440.706 580.691Q441.86 581.818 442.985 582.974Q443.974 583.978 444.941 585.004Q445.907 586.029 446.851 587.076Q447.794 588.123 448.715 589.19Q449.635 590.258 450.531 591.345Q451.428 592.433 452.3 593.54Q453.172 594.647 454.02 595.773Q454.867 596.899 455.69 598.043Q456.512 599.188 457.309 600.35Q458.106 601.512 458.877 602.692Q459.648 603.872 460.393 605.068Q461.137 606.265 461.855 607.478Q462.573 608.69 463.264 609.919Q463.956 611.147 464.619 612.39Q465.283 613.633 465.919 614.891Q466.555 616.148 467.163 617.42Q467.771 618.691 468.351 619.976Q468.931 621.26 469.483 622.557Q470.034 623.854 470.556 625.163Q471.079 626.472 471.572 627.792Q472.066 629.112 472.53 630.443Q472.994 631.773 473.429 633.114Q473.863 634.455 474.268 635.805Q474.673 637.155 475.048 638.513Q475.423 639.872 475.768 641.238Q476.112 642.605 476.427 643.979Q476.741 645.352 477.025 646.733Q477.309 648.113 477.563 649.499Q477.816 650.886 478.039 652.277Q478.262 653.669 478.453 655.065Q478.645 656.461 478.806 657.861Q478.967 659.262 479.097 660.665Q479.227 662.068 479.326 663.474C480.45 679.815 479.269 696.624 479.217 713.013C479.143 736.152 479.537 759.278 479.313 782.42C434.197 777.46 408.244 767.164 369.213 744.664C375.548 744.695 381.784 744.443 388.07 743.617Q391.055 743.13 394 742.437Q396.944 741.744 399.834 740.85Q402.724 739.955 405.544 738.863Q408.365 737.771 411.104 736.487Q412.082 736.02 413.049 735.529Q414.015 735.038 414.97 734.524Q415.924 734.01 416.865 733.473Q417.807 732.935 418.735 732.375Q419.663 731.814 420.577 731.232Q421.491 730.649 422.39 730.044Q423.29 729.439 424.174 728.812Q425.058 728.185 425.927 727.537Q426.796 726.888 427.649 726.219Q428.501 725.55 429.338 724.86Q430.174 724.17 430.993 723.46Q431.812 722.749 432.613 722.019Q433.414 721.289 434.197 720.54Q434.981 719.791 435.745 719.022Q436.51 718.254 437.256 717.467Q438.001 716.68 438.728 715.876Q439.454 715.071 440.16 714.248Q440.867 713.426 441.553 712.587Q442.239 711.748 442.904 710.892Q443.569 710.036 444.213 709.164Q444.857 708.292 445.48 707.405Q446.103 706.517 446.704 705.615Q447.304 704.713 447.883 703.796Q448.461 702.879 449.017 701.949Q449.573 701.018 450.106 700.074Q450.639 699.13 451.149 698.174Q451.659 697.217 452.145 696.248Q452.631 695.279 453.093 694.299Q453.556 693.318 453.994 692.327Q454.432 691.335 454.846 690.333Q455.26 689.331 455.649 688.32Q456.039 687.308 456.403 686.287C465.471 660.337 462.908 628.649 450.981 604.017C449.507 609.396 447.289 614.742 444.727 619.693Q444.108 620.862 443.46 622.016Q442.813 623.169 442.137 624.307Q441.462 625.445 440.76 626.566Q440.057 627.687 439.327 628.79Q438.598 629.894 437.842 630.98Q437.086 632.065 436.304 633.132Q435.521 634.199 434.714 635.247Q433.906 636.295 433.073 637.323Q432.24 638.351 431.382 639.358Q430.525 640.365 429.643 641.352Q428.761 642.338 427.856 643.303Q426.951 644.267 426.022 645.21Q425.094 646.152 424.143 647.072Q423.192 647.992 422.219 648.888Q421.246 649.784 420.251 650.657Q419.257 651.53 418.242 652.378Q417.226 653.226 416.191 654.049Q415.155 654.873 414.1 655.671Q413.045 656.469 411.971 657.241Q410.897 658.013 409.804 658.759Q408.711 659.505 407.601 660.225Q406.491 660.944 405.363 661.636Q404.236 662.328 403.092 662.993Q401.948 663.658 400.789 664.295Q399.629 664.932 398.454 665.54Q397.279 666.149 396.09 666.728Q394.901 667.308 393.698 667.859Q392.496 668.41 391.28 668.932Q390.064 669.453 388.836 669.945Q387.608 670.437 386.368 670.899Q385.128 671.362 383.878 671.794Q382.628 672.225 381.367 672.627Q380.177 673.005 378.978 673.354Q377.778 673.703 376.571 674.023Q375.363 674.342 374.149 674.631Q372.934 674.921 371.712 675.18Q370.49 675.439 369.262 675.668Q368.035 675.898 366.802 676.096Q365.569 676.295 364.331 676.464Q363.094 676.632 361.852 676.77Q360.611 676.908 359.367 677.015Q358.122 677.122 356.876 677.198Q355.629 677.275 354.381 677.321Q353.133 677.366 351.884 677.381Q350.635 677.396 349.386 677.38Q348.137 677.365 346.889 677.318Q345.641 677.271 344.395 677.194Q343.148 677.117 341.904 677.008Q340.66 676.9 339.418 676.762Q338.177 676.623 336.94 676.454Q335.702 676.285 334.469 676.085Q333.237 675.885 332.009 675.655Q330.781 675.425 329.56 675.165Q328.338 674.905 327.124 674.614Q325.909 674.324 324.702 674.004Q323.494 673.684 322.295 673.334Q321.096 672.984 319.907 672.605Q318.717 672.226 317.536 671.818Q316.356 671.409 315.186 670.972Q314.016 670.534 312.858 670.068Q311.699 669.602 310.552 669.108Q309.405 668.613 308.271 668.09Q307.136 667.568 306.015 667.017Q304.894 666.467 303.787 665.889C273.905 650.095 258.66 620.885 249.054 589.733C247.064 583.282 238.57 548.751 240.772 544.573L242.815 544.245Z"/>
</svg>
